<?xml version="1.0" encoding="iso-8859-1"?>
<!-- Generator: Adobe Illustrator 19.0.0, SVG Export Plug-In . SVG Version: 6.00 Build 0)  -->
<svg version="1.1" id="Layer_1" xmlns="http://www.w3.org/2000/svg" xmlns:xlink="http://www.w3.org/1999/xlink" x="0px" y="0px"
	 viewBox="0 0 512 512" style="enable-background:new 0 0 512 512;" xml:space="preserve">
<g>
	<g>
		<path d="M494.758,459.085c-4.796-23.339-10.914-55.578-18.005-92.919c-36.028-189.594-55.663-282.18-69.828-295.569
			c-11.452-10.829-49.357-23.253-60.433-26.735l-23.936-31.915c-0.094-0.128-0.239-0.213-0.341-0.341
			c-0.162-0.188-0.273-0.401-0.444-0.572c-0.162-0.154-0.384-0.265-0.546-0.41c-0.273-0.239-0.555-0.461-0.853-0.657
			C308.74,0.102,284.292,0,256.004,0c-28.305,0-52.762,0.102-64.384,9.975c-0.29,0.196-0.563,0.41-0.828,0.631
			c-0.171,0.162-0.401,0.265-0.563,0.427c-0.171,0.171-0.29,0.384-0.444,0.572c-0.102,0.128-0.247,0.213-0.341,0.341l-23.936,31.915
			c-11.076,3.482-48.981,15.906-60.433,26.735c-14.165,13.381-33.8,105.967-69.828,295.569
			c-7.091,37.342-13.21,69.581-18.005,92.919c-0.478,2.304,0.026,4.702,1.382,6.622c1.348,1.929,3.439,3.209,5.769,3.541
			l59.733,8.533c4.531,0.648,8.789-2.424,9.609-6.929c10.65-59.025,39.305-215.262,43.955-229.222
			c2.953-8.832,9.114-24.175,14.396-36.992c5.478,21.564,9.941,48.691,10.052,75.964c-3.319,13.815-34.142,144.375-34.142,214.332
			c0,4.335,3.251,7.987,7.561,8.474c3.063,0.35,75.315,8.593,120.448,8.593h34.133c0.154,0,0.316-0.009,0.478-0.017
			c40.875-2.304,85.589-8.533,86.033-8.602c4.216-0.589,7.356-4.19,7.356-8.448c0-69.956-30.822-200.516-34.142-214.332
			c0.111-27.273,4.574-54.4,10.052-75.964c5.282,12.817,11.443,28.16,14.396,36.992c4.651,13.961,33.306,170.197,43.955,229.222
			c0.819,4.506,5.026,7.578,9.609,6.929l59.733-8.533c2.33-0.333,4.42-1.613,5.768-3.541
			C494.733,463.787,495.236,461.389,494.758,459.085z M256.004,17.067c17.451,0,40.508,0,50.236,3.942l-2.005,10.061l-4.028,20.13
			h-88.414l-4.028-20.13l-2.005-10.061C215.488,17.067,238.545,17.067,256.004,17.067z M297.135,68.266L297.135,68.266
			c-0.41,1.605-0.913,3.389-1.476,5.283c-0.179,0.597-0.384,1.246-0.58,1.877c-0.444,1.442-0.922,2.944-1.434,4.514
			c-0.256,0.768-0.512,1.545-0.777,2.355c-0.589,1.741-1.212,3.558-1.869,5.419c-0.213,0.589-0.401,1.161-0.614,1.758
			c-0.862,2.406-1.784,4.898-2.731,7.433c-0.333,0.887-0.683,1.801-1.024,2.697c-0.683,1.783-1.374,3.575-2.091,5.402
			c-0.401,1.024-0.811,2.048-1.22,3.081c-0.768,1.92-1.553,3.857-2.347,5.794c-0.35,0.845-0.683,1.681-1.033,2.526
			c-1.101,2.637-2.219,5.274-3.345,7.885c-0.41,0.939-0.819,1.852-1.229,2.782c-0.794,1.826-1.604,3.635-2.415,5.427
			c-0.461,1.024-0.922,2.031-1.382,3.038c-0.836,1.809-1.672,3.584-2.5,5.342c-0.384,0.802-0.777,1.63-1.161,2.423
			c-1.169,2.415-2.33,4.753-3.473,6.989c-0.35,0.674-0.691,1.306-1.041,1.963c-0.845,1.621-1.69,3.2-2.517,4.693
			c-0.401,0.734-0.802,1.451-1.203,2.15c-0.819,1.434-1.63,2.79-2.415,4.079c-0.316,0.512-0.64,1.067-0.947,1.553
			c-0.111,0.171-0.205,0.29-0.307,0.452c-0.111-0.162-0.205-0.282-0.316-0.452c-0.307-0.486-0.631-1.041-0.947-1.553
			c-0.785-1.289-1.596-2.645-2.415-4.079c-0.401-0.7-0.794-1.417-1.203-2.142c-0.836-1.51-1.681-3.098-2.543-4.745
			c-0.333-0.64-0.666-1.246-0.998-1.903c-1.152-2.236-2.313-4.574-3.482-6.98c-0.393-0.819-0.794-1.664-1.186-2.5
			c-0.828-1.732-1.655-3.49-2.483-5.291c-0.461-1.007-0.922-2.014-1.382-3.038c-0.811-1.792-1.621-3.601-2.415-5.427
			c-0.41-0.93-0.819-1.843-1.229-2.782c-1.126-2.611-2.244-5.248-3.345-7.885c-0.35-0.845-0.683-1.681-1.033-2.526
			c-0.794-1.937-1.579-3.874-2.347-5.794c-0.41-1.033-0.819-2.057-1.22-3.081c-0.717-1.826-1.408-3.618-2.091-5.402
			c-0.341-0.896-0.691-1.809-1.024-2.697c-0.947-2.526-1.86-5.009-2.714-7.398c-0.23-0.631-0.427-1.229-0.649-1.843
			c-0.649-1.852-1.28-3.661-1.86-5.402c-0.265-0.785-0.512-1.536-0.759-2.287c-0.521-1.587-0.998-3.098-1.442-4.557
			c-0.196-0.623-0.401-1.271-0.58-1.869c-0.563-1.894-1.067-3.678-1.476-5.282H297.135z M247.47,207.675
			c-1.545-1.007-3.115-2.15-4.693-3.319c-0.435-0.315-0.853-0.58-1.288-0.904c-2.065-1.579-4.156-3.277-6.255-5.094
			c-4.369-3.772-8.371-7.953-12.186-12.331c-15.77-18.159-26.675-41.097-31.053-66.347l-12.262-66.355l11.913-15.863l4.642,23.236
			c0.034,0.606,0.171,1.417,0.256,2.116c0.077,0.666,0.119,1.271,0.239,2.014c0.162,1.05,0.427,2.261,0.674,3.448
			c0.171,0.794,0.29,1.519,0.495,2.372c0.341,1.434,0.777,3.029,1.203,4.617c0.213,0.777,0.375,1.476,0.606,2.295
			c1.417,4.958,3.209,10.522,5.291,16.461c0.273,0.794,0.589,1.63,0.879,2.44c0.794,2.21,1.587,4.429,2.44,6.724
			c0.393,1.041,0.819,2.108,1.22,3.157c0.802,2.108,1.604,4.207,2.458,6.349c0.469,1.178,0.956,2.372,1.434,3.558
			c0.828,2.031,1.647,4.062,2.5,6.101c0.538,1.28,1.084,2.534,1.621,3.814c0.836,1.946,1.664,3.891,2.517,5.828
			c0.58,1.306,1.161,2.586,1.741,3.883c0.845,1.886,1.69,3.746,2.551,5.589c0.589,1.289,1.186,2.534,1.783,3.797
			c0.853,1.792,1.698,3.558,2.551,5.291c0.614,1.246,1.22,2.458,1.835,3.669c0.828,1.647,1.647,3.251,2.475,4.821
			c0.623,1.186,1.237,2.338,1.852,3.482c0.811,1.485,1.596,2.901,2.389,4.301c0.614,1.075,1.212,2.125,1.818,3.14
			c0.768,1.306,1.519,2.517,2.27,3.712c0.589,0.939,1.169,1.869,1.749,2.731c0.717,1.092,1.417,2.057,2.108,3.021
			c0.555,0.76,1.109,1.536,1.638,2.21c0.188,0.239,0.401,0.563,0.589,0.794V207.675z M256.004,401.067
			c-4.719,0-8.533-3.823-8.533-8.533c0-4.71,3.814-8.533,8.533-8.533c4.71,0,8.533,3.823,8.533,8.533
			C264.537,397.244,260.715,401.067,256.004,401.067z M256.004,332.8c-4.719,0-8.533-3.823-8.533-8.533
			c0-4.71,3.814-8.533,8.533-8.533c4.71,0,8.533,3.823,8.533,8.533C264.537,328.977,260.715,332.8,256.004,332.8z M264.538,182.434
			L264.538,182.434c0.179-0.23,0.393-0.555,0.58-0.794c0.529-0.674,1.084-1.451,1.638-2.21c0.691-0.964,1.391-1.929,2.108-3.021
			c0.58-0.862,1.161-1.792,1.749-2.731c0.751-1.195,1.502-2.406,2.27-3.712c0.606-1.015,1.203-2.065,1.818-3.14
			c0.794-1.399,1.579-2.816,2.389-4.301c0.614-1.143,1.229-2.295,1.852-3.482c0.828-1.57,1.647-3.174,2.475-4.821
			c0.614-1.212,1.22-2.423,1.835-3.669c0.853-1.732,1.698-3.499,2.551-5.291c0.597-1.263,1.195-2.509,1.783-3.797
			c0.862-1.843,1.707-3.703,2.552-5.589c0.58-1.297,1.161-2.577,1.741-3.883c0.853-1.937,1.681-3.883,2.517-5.828
			c0.538-1.28,1.084-2.534,1.621-3.814c0.853-2.039,1.672-4.07,2.5-6.101c0.478-1.186,0.964-2.381,1.434-3.558
			c0.853-2.142,1.655-4.241,2.458-6.349c0.401-1.05,0.828-2.116,1.22-3.157c0.853-2.295,1.647-4.514,2.441-6.724
			c0.29-0.811,0.606-1.647,0.879-2.44c2.082-5.939,3.874-11.503,5.291-16.461c0.23-0.819,0.393-1.519,0.606-2.295
			c0.427-1.587,0.862-3.183,1.203-4.617c0.205-0.853,0.324-1.579,0.495-2.372c0.247-1.186,0.512-2.398,0.674-3.448
			c0.119-0.742,0.162-1.348,0.239-2.014c0.085-0.7,0.222-1.51,0.256-2.116l4.642-23.236l11.913,15.863l-12.271,66.449
			c-4.378,25.173-15.275,48.102-31.044,66.253c-3.814,4.378-7.817,8.559-12.186,12.331v0.009c-2.091,1.809-4.164,3.49-6.221,5.06
			c-0.853,0.648-1.681,1.186-2.526,1.783c-1.169,0.836-2.338,1.715-3.482,2.466V182.434z M433.6,459.725
			c-7.74-42.76-37.675-207.198-43.11-223.488c-5.086-15.266-18.68-47.539-22.844-57.344c6.767-17.937,14.481-28.902,14.575-29.013
			c2.739-3.823,1.877-9.148-1.946-11.904c-3.814-2.756-9.131-1.903-11.895,1.911c-0.41,0.563-10.129,14.123-18.031,36.471
			c-0.145,0.41-0.094,0.828-0.171,1.237c-8.465,24.388-17.382,64.128-17.382,104.004c0,0.674,0.085,1.348,0.247,2.005
			c0.324,1.357,31.633,131.601,33.775,203.87c-12.894,1.655-40.602,5.009-68.156,6.912v-143.99c0-5.623-0.196-11.247-0.546-16.845
			c-0.12-1.843-0.35-3.678-0.503-5.521c-0.316-3.755-0.631-7.509-1.109-11.238c-0.273-2.176-0.657-4.318-0.99-6.485
			c-0.512-3.379-1.016-6.767-1.664-10.121c-0.435-2.278-0.973-4.54-1.468-6.801c-0.7-3.208-1.399-6.417-2.219-9.6
			c-0.597-2.321-1.271-4.608-1.929-6.912c-0.888-3.089-1.784-6.17-2.773-9.225c-0.759-2.321-1.579-4.617-2.398-6.921
			c-1.058-2.978-2.142-5.948-3.311-8.892c-0.913-2.304-1.869-4.582-2.85-6.861c-1.237-2.884-2.509-5.743-3.849-8.585
			c-1.067-2.27-2.167-4.514-3.302-6.758c-0.666-1.323-1.254-2.688-1.954-4.002c0.486-0.265,0.998-0.657,1.493-0.947
			c2.295-1.331,4.617-2.807,6.972-4.429c0.862-0.597,1.707-1.169,2.569-1.801c3.029-2.202,6.067-4.548,9.105-7.177
			c25.412-21.99,42.769-53.453,48.853-88.491l11.179-60.535c22.332,7.356,42.121,15.966,47.198,20.719
			c13.158,14.49,45.491,184.678,64.819,286.379c6.238,32.887,11.742,61.824,16.247,84.284L433.6,459.725z"/>
	</g>
</g>
<g>
</g>
<g>
</g>
<g>
</g>
<g>
</g>
<g>
</g>
<g>
</g>
<g>
</g>
<g>
</g>
<g>
</g>
<g>
</g>
<g>
</g>
<g>
</g>
<g>
</g>
<g>
</g>
<g>
</g>
</svg>
