<?xml version="1.0" encoding="utf-8"?>
<!-- Uploaded to SVGRepo https://www.svgrepo.com -->
<svg version="1.2" baseProfile="tiny" id="inventory"
	 xmlns="http://www.w3.org/2000/svg" xmlns:xlink="http://www.w3.org/1999/xlink" x="0px" y="0px" viewBox="0 0 256 230"
	 xml:space="preserve">
<path d="M245.2,133.4l-62,62c-7.2,7.5-18,12.8-29.4,12.8h-46.6c-5.9,0-11.2,2.3-15.1,6.2L76.6,229H6l67.9-68.8l-0.1-0.1
	c7.2-7.2,17.3-11.7,28.4-11.8h67c7.1,0,12.8,5.7,12.8,12.8c0,7.1-5.7,12.8-12.8,12.8h-54c-2.3-0.2-4.2,1.7-4.2,4.2s1.9,4.3,4.3,4.3
	h53.7c5.7,0.2,11.1-2.2,15.1-6.2c4-4,6.2-9.5,6.2-15.1c0.2-2.6-0.5-5.4-1.4-7.8l38.1-38.1c5.1-5.1,13.1-5.1,18.1-0.2
	C250.3,120.1,250.2,128.4,245.2,133.4z M69,69c0-37.2,29.8-67.4,67-67.4c37.2,0,67.2,30,67.2,67.2S173.1,136,136.1,136
	C99.1,136,69,106,69,69z M144.9,84.5c0,4.6-3.8,8-11.5,8c-7.2,0-13.9-2.5-18.2-4.6l-3.4,13.6c3.9,2.2,12,4.3,20,4.3V116h9.3v-10.5
	c13.6-3,20-11.1,20-21.6s-5.9-17-18.6-21.6C133.3,58.5,129,56.7,129,52c0-3.4,3.7-6.8,10.5-6.8c6.8,0,11.8,2.1,14.9,3.4l3.8-13.3
	c-4.1-2.2-9.7-3.8-17.4-3.8V21.1h-9.3v11.1c-12.4,2.5-19.2,10.5-19.2,20.8c0,11.1,7.7,17.3,20,21.6C141.2,78,144.9,79.9,144.9,84.5z
	"/>
</svg>
