<?xml version="1.0" encoding="iso-8859-1"?>
<!-- Generator: Adobe Illustrator 16.0.0, SVG Export Plug-In . SVG Version: 6.00 Build 0)  -->
<!DOCTYPE svg PUBLIC "-//W3C//DTD SVG 1.1//EN" "http://www.w3.org/Graphics/SVG/1.1/DTD/svg11.dtd">
<svg version="1.1" id="Capa_1" xmlns="http://www.w3.org/2000/svg" xmlns:xlink="http://www.w3.org/1999/xlink" x="0px" y="0px"
	 width="46.354px" height="46.354px" viewBox="0 0 46.354 46.354" style="enable-background:new 0 0 46.354 46.354;"
	 xml:space="preserve">
<g>
	<path d="M45.186,27.226v-0.496l-4.175-13.713h-9.239V9.737H9.563v8.487H4.834l-2,2.667h6.729v1.928v0.072H2l-2,2.667h9.562v1.668
		H8.5v4.5h1.062v0.668h0.722c0.404,2.393,2.485,4.223,4.992,4.223c2.507,0,4.587-1.83,4.991-4.223h11.382
		c0.402,2.393,2.483,4.223,4.99,4.223c2.506,0,4.588-1.83,4.991-4.223h3.555v-0.668h1.169v-4.5H45.186L45.186,27.226z
		 M15.276,34.233c-1.479,0-2.684-1.205-2.684-2.686c0-1.479,1.204-2.683,2.684-2.683c1.479,0,2.683,1.203,2.683,2.683
		C17.959,33.028,16.755,34.233,15.276,34.233z M36.64,34.233c-1.479,0-2.685-1.205-2.685-2.686c0-1.479,1.205-2.683,2.685-2.683
		s2.683,1.203,2.683,2.683C39.322,33.028,38.119,34.233,36.64,34.233z M34.156,21.475v-6.074h5.088l1.85,6.074H34.156z"/>
</g>
<g>
</g>
<g>
</g>
<g>
</g>
<g>
</g>
<g>
</g>
<g>
</g>
<g>
</g>
<g>
</g>
<g>
</g>
<g>
</g>
<g>
</g>
<g>
</g>
<g>
</g>
<g>
</g>
<g>
</g>
</svg>
